<svg width="12" height="15" viewBox="0 0 12 15" fill="none" xmlns="http://www.w3.org/2000/svg">
<path fill-rule="evenodd" clip-rule="evenodd" d="M6.68354 0.649039C6.68354 0.290585 6.37751 0 6 0C5.62248 0 5.31645 0.290585 5.31645 0.649039V0.774998C3.57359 1.05263 2.20346 2.37401 1.94333 4.03908L1.89066 4.03106C1.78537 4.01485 1.7051 4.00147 1.65209 3.99231C1.62558 3.98774 1.60589 3.98422 1.5933 3.98193L1.57977 3.97945L1.57709 3.97895C1.20702 3.90885 0.846777 4.13671 0.772763 4.4881C0.698727 4.83959 0.938799 5.18152 1.30898 5.25182L1.31003 5.25202L1.31178 5.25235L1.31736 5.25339L1.33671 5.25694C1.35323 5.25994 1.37693 5.26417 1.40754 5.26945C1.46874 5.28002 1.55758 5.29481 1.67183 5.3124C1.86858 5.34269 2.14087 5.38133 2.47726 5.42103C2.47136 5.50031 2.46835 5.58035 2.46835 5.66105C2.46835 7.51365 4.04891 9.01442 6 9.01442C7.95109 9.01442 9.53165 7.51365 9.53165 5.66105C9.53165 5.58035 9.52864 5.5003 9.52274 5.42103C9.85913 5.38133 10.1314 5.34269 10.3282 5.3124C10.4424 5.29481 10.5313 5.28002 10.5925 5.26945C10.6231 5.26417 10.6468 5.25994 10.6633 5.25694L10.6826 5.25339L10.6882 5.25235L10.69 5.25202L10.6908 5.25186C11.061 5.18156 11.3013 4.83959 11.2272 4.4881C11.1532 4.13666 10.7932 3.90872 10.4231 3.97892L10.4202 3.97945L10.4067 3.98193C10.3941 3.98422 10.3744 3.98774 10.3479 3.99231C10.2949 4.00147 10.2146 4.01485 10.1093 4.03106L10.0567 4.03908C9.79653 2.37401 8.4264 1.05263 6.68354 0.774998V0.649039ZM5.31653 2.101C5.32196 2.45501 5.62588 2.74039 6 2.74039C6.37411 2.74039 6.67803 2.45501 6.68347 2.10101C7.72555 2.35565 8.52722 3.17897 8.69967 4.2018C7.96882 4.26987 7.04444 4.32693 6 4.32693C4.95555 4.32693 4.03117 4.26987 3.30032 4.2018C3.47277 3.17897 4.27444 2.35565 5.31653 2.101ZM3.83862 5.54861C3.83651 5.58583 3.83544 5.62332 3.83544 5.66105C3.83544 6.79674 4.80394 7.71634 6 7.71634C7.19607 7.71634 8.16456 6.79674 8.16456 5.66105C8.16456 5.62332 8.16349 5.58583 8.16138 5.54861C7.52685 5.59338 6.79676 5.625 6 5.625C5.20324 5.625 4.47315 5.59338 3.83862 5.54861ZM1.38812 13.6881C1.35741 13.6629 1.35911 13.6021 1.36309 13.4602C1.36486 13.3969 1.36709 13.3174 1.36709 13.2177C1.36709 11.8529 3.47711 11.0337 6 11.0337C8.52289 11.0337 10.6329 11.8529 10.6329 13.2177C10.6329 13.3174 10.6351 13.3968 10.6369 13.4602C10.6409 13.6021 10.6426 13.6629 10.6119 13.6881C10.5888 13.707 10.5475 13.7058 10.4752 13.7037C10.4477 13.7029 10.4156 13.7019 10.3783 13.7019H1.62174C1.58443 13.7019 1.55234 13.7029 1.52476 13.7037C1.45247 13.7058 1.41116 13.707 1.38812 13.6881ZM6 9.73557C2.78946 9.73557 0 10.8186 0 13.2177C0 14.4694 0.520662 15 1.62174 15H10.3783C11.4793 15 12 14.4694 12 13.2177C12 10.8186 9.21054 9.73557 6 9.73557Z" fill="#2688EB"/>
</svg>
