<svg width="16" height="15" viewBox="0 0 16 15" fill="none" xmlns="http://www.w3.org/2000/svg">
<path fill-rule="evenodd" clip-rule="evenodd" d="M5.77492 0.919146L8.93731 0.919147C9.38154 0.919147 9.74167 1.25687 9.74167 1.67348C9.74167 2.09008 9.38154 2.42781 8.93731 2.42781H5.80925C4.92004 2.42781 4.30151 2.4284 3.82025 2.46527C3.34838 2.50143 3.07975 2.56867 2.87748 2.66533C2.44025 2.87425 2.08477 3.20762 1.86198 3.61766C1.75892 3.80736 1.68722 4.05928 1.64866 4.5018C1.60934 4.95312 1.60872 5.53319 1.60872 6.3671V9.55205C1.60872 10.386 1.60934 10.966 1.64866 11.4173C1.68722 11.8599 1.75892 12.1118 1.86198 12.3015C2.08477 12.7115 2.44025 13.0449 2.87748 13.2538C3.07975 13.3505 3.34838 13.4177 3.82025 13.4539C4.30151 13.4908 4.92004 13.4913 5.80925 13.4913H9.20543C10.0946 13.4913 10.7132 13.4908 11.1944 13.4539C11.6663 13.4177 11.9349 13.3505 12.1372 13.2538C12.5744 13.0449 12.9299 12.7115 13.1527 12.3015C13.2558 12.1118 13.3275 11.8599 13.366 11.4173C13.4053 10.966 13.406 10.386 13.406 9.55205V6.61854C13.406 6.20193 13.7661 5.86421 14.2103 5.86421C14.6546 5.86421 15.0147 6.20193 15.0147 6.61854V9.58424C15.0147 10.3784 15.0147 11.0202 14.9694 11.5402C14.9227 12.076 14.8239 12.5486 14.5861 12.9864C14.2091 13.6803 13.6075 14.2445 12.8675 14.598C12.4007 14.8211 11.8968 14.9138 11.3254 14.9575C10.7709 15 10.0866 15 9.23976 15H5.77492C4.92811 15 4.24374 15 3.68925 14.9575C3.1179 14.9138 2.61399 14.8211 2.14714 14.598C1.40721 14.2445 0.805622 13.6803 0.428608 12.9864C0.190734 12.5486 0.0919704 12.076 0.045289 11.5402C-1.45895e-05 11.0202 -7.98375e-06 10.3784 2.1991e-07 9.58424V6.33491C-7.98375e-06 5.54076 -1.45895e-05 4.89895 0.045289 4.37895C0.0919704 3.84313 0.190734 3.37056 0.428608 2.93274C0.805622 2.23883 1.40721 1.67466 2.14714 1.3211C2.61399 1.09802 3.1179 1.0054 3.68925 0.961618C4.24374 0.919132 4.92811 0.919139 5.77492 0.919146Z" fill="#2688EB"/>
<path fill-rule="evenodd" clip-rule="evenodd" d="M14.3217 0.270036C14.7057 -0.090012 15.3281 -0.0900121 15.7121 0.270036C16.096 0.630084 16.096 1.21384 15.7121 1.57389L15.3961 1.87021C15.2565 2.00114 15.0301 2.00114 14.8905 1.87021L14.0058 1.04049C13.8661 0.909566 13.8661 0.697292 14.0058 0.566365L14.3217 0.270036ZM13.7849 2.42799L13.4057 2.0724C13.0153 1.70623 12.7623 1.72758 12.3946 2.0724C10.8674 3.50466 9.34011 4.93692 7.81287 6.36917C6.06775 8.00576 4.96429 9.62434 5.34822 9.98439C5.73214 10.3444 7.45807 9.3096 9.20319 7.67302C10.7304 6.24077 12.2576 4.80846 13.7849 3.37625C14.1754 3.01008 14.1526 2.77281 13.7849 2.42799Z" fill="#2688EB"/>
</svg>
