<svg width="14" height="16" viewBox="0 0 14 16" fill="none" xmlns="http://www.w3.org/2000/svg">
<path fill-rule="evenodd" clip-rule="evenodd" d="M11.7848 1.45455H5.05063C4.2931 1.45455 3.77291 1.45511 3.36965 1.48516C2.9757 1.51452 2.76408 1.56834 2.61093 1.63951C2.2608 1.8022 1.97614 2.0618 1.79775 2.38111C1.71971 2.52078 1.66069 2.71378 1.6285 3.07305C1.59556 3.44081 1.59494 3.91521 1.59494 4.60606V11.4876C1.89551 11.3751 2.22462 11.3131 2.56962 11.3131H12.4051V2.02021C12.4051 1.53537 12.3164 1.45455 11.7848 1.45455ZM2.83848e-07 4.5756C-8.95864e-06 3.92263 -1.6617e-05 3.3886 0.0388652 2.9546C0.0791107 2.50538 0.164956 2.09966 0.376649 1.72076C0.707958 1.12776 1.23661 0.645644 1.88684 0.343498C2.30231 0.150439 2.74719 0.0721497 3.23977 0.0354468C3.71567 -1.25758e-05 4.30123 -5.59193e-06 5.01723 2.83701e-06L11.8112 1.58471e-06C12.0365 -1.88374e-05 12.251 -3.81994e-05 12.4317 0.0134279C12.6288 0.028112 12.8548 0.062363 13.0808 0.167346C13.3975 0.314546 13.6551 0.549425 13.8165 0.838322C13.9316 1.04436 13.9692 1.25051 13.9853 1.43024C14 1.59505 14 1.79064 14 1.99616L14 11.3277C14 11.8317 14 12.0837 13.9019 12.2763C13.8156 12.4456 13.6779 12.5833 13.5086 12.6696C13.3161 12.7677 13.064 12.7677 12.56 12.7677H12.4538C12.3861 13.0275 12.3537 13.1804 12.3373 13.3324C12.3141 13.548 12.3141 13.7651 12.3373 13.9807C12.3537 14.1328 12.3861 14.2856 12.4538 14.5455H13.2025C13.643 14.5455 14 14.8711 14 15.2727C14 15.6744 13.643 16 13.2025 16H2.56962C1.15046 16 6.00733e-07 14.9508 6.00733e-07 13.6566C6.00733e-07 10.6297 3.90424e-07 7.60257 2.83848e-07 4.5756ZM10.8206 14.5455C10.7885 14.3978 10.7649 14.2611 10.75 14.123C10.7166 13.8128 10.7166 13.5003 10.75 13.1901C10.7649 13.052 10.7885 12.9153 10.8206 12.7677H2.56962C2.03132 12.7677 1.59494 13.1656 1.59494 13.6566C1.59494 14.1475 2.03132 14.5455 2.56962 14.5455H10.8206Z" fill="#3F8AE0"/>
</svg>
