<svg width="16" height="15" viewBox="0 0 16 15" fill="none" xmlns="http://www.w3.org/2000/svg">
<path fill-rule="evenodd" clip-rule="evenodd" d="M5.6666 5.0625C5.6666 3.85438 6.71127 2.875 7.99993 2.875C9.2886 2.875 10.3333 3.85438 10.3333 5.0625C10.3333 6.27062 9.2886 7.25 7.99993 7.25C6.71127 7.25 5.6666 6.27062 5.6666 5.0625ZM7.99993 6.125C7.37401 6.125 6.8666 5.6493 6.8666 5.0625C6.8666 4.4757 7.37401 4 7.99993 4C8.62585 4 9.13326 4.4757 9.13326 5.0625C9.13326 5.6493 8.62585 6.125 7.99993 6.125Z" fill="#3F8AE0"/>
<path fill-rule="evenodd" clip-rule="evenodd" d="M8.00019 8.18754C6.9975 8.18754 6.04982 8.40854 5.33213 8.82191C4.61354 9.2358 4.06685 9.88585 4.06685 10.7217C4.06685 11.2276 4.2525 11.6795 4.63433 11.9985C5.00644 12.3094 5.49689 12.4375 6.00019 12.4375H10.0002C10.5035 12.4375 10.9939 12.3094 11.366 11.9985C11.7479 11.6795 11.9335 11.2276 11.9335 10.7217C11.9335 9.88585 11.3868 9.2358 10.6682 8.82191C9.95055 8.40854 9.00287 8.18754 8.00019 8.18754ZM5.26685 10.7217C5.26685 10.3984 5.47043 10.0626 5.9603 9.78046C6.45107 9.49778 7.17006 9.31254 8.00019 9.31254C8.83032 9.31254 9.5493 9.49778 10.0401 9.78046C10.5299 10.0626 10.7335 10.3984 10.7335 10.7217C10.7335 10.9629 10.6525 11.0877 10.5677 11.1586C10.4731 11.2376 10.2969 11.3125 10.0002 11.3125H6.00019C5.70348 11.3125 5.52726 11.2376 5.43271 11.1586C5.34787 11.0877 5.26685 10.9629 5.26685 10.7217Z" fill="#3F8AE0"/>
<path d="M3.93554 8.56252C3.93554 8.25186 3.66691 8.00002 3.33554 8.00002C1.99771 8.00002 0.702209 8.7975 0.702209 10.0982C0.702209 10.8876 1.28231 11.8125 2.44028 11.8125C2.77165 11.8125 3.04028 11.5607 3.04028 11.25C3.04028 10.9394 2.77165 10.6875 2.44028 10.6875C2.25898 10.6875 2.1404 10.6224 2.05672 10.5288C1.96349 10.4245 1.90221 10.2683 1.90221 10.0982C1.90221 9.64136 2.39506 9.12501 3.33554 9.12501C3.66691 9.12501 3.93554 8.87318 3.93554 8.56252Z" fill="#3F8AE0"/>
<path d="M4.20962 3.41192C4.53766 3.36798 4.84158 3.58167 4.88845 3.88921C4.93531 4.19675 4.70738 4.48167 4.37934 4.52561C3.97405 4.5799 3.66676 4.90476 3.66676 5.29154C3.66676 5.71607 4.03676 6.06547 4.50009 6.06547C4.83146 6.06547 5.10009 6.31731 5.10009 6.62797C5.10009 6.93863 4.83146 7.19047 4.50009 7.19047C3.38021 7.19047 2.46676 6.34318 2.46676 5.29154C2.46676 4.33234 3.22652 3.5436 4.20962 3.41192Z" fill="#3F8AE0"/>
<path d="M12.0643 8.56252C12.0643 8.25186 12.3329 8.00002 12.6643 8.00002C14.0022 8.00002 15.2977 8.7975 15.2977 10.0982C15.2977 10.8876 14.7175 11.8125 13.5596 11.8125C13.2282 11.8125 12.9596 11.5607 12.9596 11.25C12.9596 10.9394 13.2282 10.6875 13.5596 10.6875C13.7409 10.6875 13.8595 10.6224 13.9431 10.5288C14.0364 10.4245 14.0977 10.2683 14.0977 10.0982C14.0977 9.64136 13.6048 9.12501 12.6643 9.12501C12.3329 9.12501 12.0643 8.87318 12.0643 8.56252Z" fill="#3F8AE0"/>
<path d="M11.7906 3.41192C11.4625 3.36798 11.1586 3.58167 11.1117 3.88921C11.0649 4.19675 11.2928 4.48167 11.6208 4.52561C12.0261 4.5799 12.3334 4.90476 12.3334 5.29154C12.3334 5.71607 11.9634 6.06547 11.5001 6.06547C11.1687 6.06547 10.9001 6.31731 10.9001 6.62797C10.9001 6.93863 11.1687 7.19047 11.5001 7.19047C12.62 7.19047 13.5334 6.34318 13.5334 5.29154C13.5334 4.33234 12.7737 3.5436 11.7906 3.41192Z" fill="#3F8AE0"/>
</svg>
