<svg width="302" height="37" viewBox="0 0 302 37" fill="none" xmlns="http://www.w3.org/2000/svg">
<path d="M55.92 35.4C53.3333 35.4 51.08 34.7333 49.16 33.4C47.2667 32.04 45.9733 30.2 45.28 27.88L49.24 27.24C50.0133 28.7333 50.9333 29.84 52 30.56C53.0667 31.2533 54.3733 31.6 55.92 31.6C57.4933 31.6 58.7733 31.2533 59.76 30.56C60.7467 29.84 61.24 28.8667 61.24 27.64C61.24 26.7333 60.96 25.9733 60.4 25.36C59.8667 24.7467 59.1867 24.2533 58.36 23.88C57.5333 23.5067 56.4533 23.0933 55.12 22.64C53.3333 22.0533 51.8667 21.4667 50.72 20.88C49.5733 20.2933 48.6 19.4667 47.8 18.4C47.0267 17.3067 46.64 15.92 46.64 14.24C46.64 12.6667 47.0267 11.2933 47.8 10.12C48.6 8.92 49.6933 8 51.08 7.36C52.4667 6.72 54.0133 6.4 55.72 6.4C58.0933 6.4 60.1333 7.02667 61.84 8.28C63.5467 9.50667 64.76 11.2 65.48 13.36L61.6 14C61.0667 12.7733 60.3067 11.84 59.32 11.2C58.3333 10.5333 57.1733 10.2 55.84 10.2C54.4 10.2 53.2133 10.5467 52.28 11.24C51.3467 11.9067 50.88 12.8267 50.88 14C50.88 14.88 51.1467 15.6267 51.68 16.24C52.24 16.8533 52.92 17.3467 53.72 17.72C54.5467 18.0933 55.64 18.52 57 19C58.7333 19.5867 60.1733 20.1867 61.32 20.8C62.4933 21.3867 63.48 22.2267 64.28 23.32C65.08 24.4133 65.48 25.7867 65.48 27.44C65.48 29.04 65.0533 30.44 64.2 31.64C63.3733 32.84 62.2267 33.7733 60.76 34.44C59.32 35.08 57.7067 35.4 55.92 35.4ZM79.9984 35.4C77.9451 35.4 76.0918 34.9467 74.4384 34.04C72.8118 33.1067 71.5451 31.8267 70.6384 30.2C69.7318 28.5733 69.2784 26.7333 69.2784 24.68C69.2784 22.6 69.7318 20.7467 70.6384 19.12C71.5451 17.4933 72.8118 16.2267 74.4384 15.32C76.0651 14.3867 77.9184 13.92 79.9984 13.92C82.2118 13.92 84.1851 14.4533 85.9184 15.52C87.6784 16.5867 88.9318 18.12 89.6784 20.12L85.9984 20.72C85.5184 19.76 84.7584 18.9867 83.7184 18.4C82.7051 17.8133 81.5451 17.52 80.2384 17.52C78.2118 17.52 76.5584 18.1867 75.2784 19.52C74.0251 20.8533 73.3984 22.5733 73.3984 24.68C73.3984 26.7867 74.0251 28.5067 75.2784 29.84C76.5584 31.1467 78.2118 31.8 80.2384 31.8C81.5984 31.8 82.7984 31.4933 83.8384 30.88C84.9051 30.2667 85.6784 29.4533 86.1584 28.44L89.8384 29.04C89.0918 31.0667 87.8118 32.64 85.9984 33.76C84.2118 34.8533 82.2118 35.4 79.9984 35.4ZM93.8519 35V6.8H97.7719V17.12C98.4652 16.1067 99.3319 15.32 100.372 14.76C101.439 14.2 102.599 13.92 103.852 13.92C105.345 13.92 106.679 14.2933 107.852 15.04C109.052 15.76 109.985 16.7733 110.652 18.08C111.319 19.36 111.652 20.8133 111.652 22.44V35H107.732V22.8C107.732 21.2267 107.279 19.9467 106.372 18.96C105.492 17.9733 104.345 17.48 102.932 17.48C101.465 17.48 100.239 17.9867 99.2519 19C98.2652 19.9867 97.7719 21.2533 97.7719 22.8V35H93.8519ZM137.216 24.52C137.216 25.0533 137.203 25.4667 137.176 25.76H120.096C120.309 27.6 121.029 29.0667 122.256 30.16C123.483 31.2533 125.043 31.8 126.936 31.8C128.243 31.8 129.403 31.5467 130.416 31.04C131.456 30.5067 132.243 29.8133 132.776 28.96L136.456 29.56C135.656 31.4267 134.363 32.8667 132.576 33.88C130.816 34.8933 128.856 35.4 126.696 35.4C124.643 35.4 122.803 34.9467 121.176 34.04C119.549 33.1067 118.283 31.8267 117.376 30.2C116.469 28.5733 116.016 26.7333 116.016 24.68C116.016 22.6 116.469 20.7467 117.376 19.12C118.283 17.4933 119.536 16.2267 121.136 15.32C122.736 14.3867 124.563 13.92 126.616 13.92C128.643 13.92 130.456 14.3867 132.056 15.32C133.683 16.2267 134.949 17.4933 135.856 19.12C136.763 20.72 137.216 22.52 137.216 24.52ZM126.616 17.4C125.043 17.4 123.683 17.8667 122.536 18.8C121.416 19.7333 120.669 20.9867 120.296 22.56H132.936C132.589 21.0133 131.843 19.7733 130.696 18.84C129.576 17.88 128.216 17.4 126.616 17.4ZM150.325 35.4C148.378 35.4 146.632 34.9467 145.085 34.04C143.565 33.1067 142.365 31.8267 141.485 30.2C140.632 28.5733 140.205 26.7333 140.205 24.68C140.205 22.6 140.632 20.7467 141.485 19.12C142.365 17.4933 143.565 16.2267 145.085 15.32C146.632 14.3867 148.378 13.92 150.325 13.92C152.032 13.92 153.538 14.28 154.845 15C156.152 15.6933 157.218 16.56 158.045 17.6V6.8H161.965V35H159.165L158.205 31.56C157.352 32.6533 156.258 33.5733 154.925 34.32C153.618 35.04 152.085 35.4 150.325 35.4ZM151.165 31.88C153.192 31.88 154.845 31.2133 156.125 29.88C157.405 28.5467 158.045 26.8133 158.045 24.68C158.045 22.5467 157.405 20.8133 156.125 19.48C154.845 18.1467 153.192 17.48 151.165 17.48C149.138 17.48 147.485 18.1467 146.205 19.48C144.952 20.8133 144.325 22.5467 144.325 24.68C144.325 26.8133 144.952 28.5467 146.205 29.88C147.485 31.2133 149.138 31.88 151.165 31.88ZM175.497 35.4C174.03 35.4 172.71 35.04 171.537 34.32C170.364 33.5733 169.444 32.56 168.777 31.28C168.11 29.9733 167.777 28.5067 167.777 26.88V14.32H171.697V26.56C171.697 28.1333 172.137 29.4133 173.017 30.4C173.897 31.3867 175.03 31.88 176.417 31.88C177.857 31.88 179.057 31.3733 180.017 30.36C180.977 29.3467 181.457 28.08 181.457 26.56V14.32H185.377V35H182.577L181.657 31.88C180.99 33 180.11 33.8667 179.017 34.48C177.95 35.0933 176.777 35.4 175.497 35.4ZM195.27 35H191.35V6.8H195.27V35ZM221.277 24.52C221.277 25.0533 221.264 25.4667 221.237 25.76H204.157C204.37 27.6 205.09 29.0667 206.317 30.16C207.544 31.2533 209.104 31.8 210.997 31.8C212.304 31.8 213.464 31.5467 214.477 31.04C215.517 30.5067 216.304 29.8133 216.837 28.96L220.517 29.56C219.717 31.4267 218.424 32.8667 216.637 33.88C214.877 34.8933 212.917 35.4 210.757 35.4C208.704 35.4 206.864 34.9467 205.237 34.04C203.61 33.1067 202.344 31.8267 201.437 30.2C200.53 28.5733 200.077 26.7333 200.077 24.68C200.077 22.6 200.53 20.7467 201.437 19.12C202.344 17.4933 203.597 16.2267 205.197 15.32C206.797 14.3867 208.624 13.92 210.677 13.92C212.704 13.92 214.517 14.3867 216.117 15.32C217.744 16.2267 219.01 17.4933 219.917 19.12C220.824 20.72 221.277 22.52 221.277 24.52ZM210.677 17.4C209.104 17.4 207.744 17.8667 206.597 18.8C205.477 19.7333 204.73 20.9867 204.357 22.56H216.997C216.65 21.0133 215.904 19.7733 214.757 18.84C213.637 17.88 212.277 17.4 210.677 17.4ZM244.226 18.84V6.8H248.346V35H244.226V22.64H229.986V35H225.866V6.8H229.986V18.84H244.226ZM262.019 35.4C260.552 35.4 259.232 35.04 258.059 34.32C256.885 33.5733 255.965 32.56 255.299 31.28C254.632 29.9733 254.299 28.5067 254.299 26.88V14.32H258.219V26.56C258.219 28.1333 258.659 29.4133 259.539 30.4C260.419 31.3867 261.552 31.88 262.939 31.88C264.379 31.88 265.579 31.3733 266.539 30.36C267.499 29.3467 267.979 28.08 267.979 26.56V14.32H271.899V35H269.099L268.179 31.88C267.512 33 266.632 33.8667 265.539 34.48C264.472 35.0933 263.299 35.4 262.019 35.4ZM289.552 35.4C287.792 35.4 286.246 35.04 284.912 34.32C283.606 33.5733 282.526 32.6533 281.672 31.56L280.712 35H277.872V6.8H281.792V17.6C282.646 16.56 283.726 15.6933 285.032 15C286.339 14.28 287.846 13.92 289.552 13.92C291.499 13.92 293.232 14.3867 294.752 15.32C296.272 16.2267 297.459 17.4933 298.312 19.12C299.192 20.7467 299.632 22.6 299.632 24.68C299.632 26.7333 299.192 28.5733 298.312 30.2C297.459 31.8267 296.272 33.1067 294.752 34.04C293.232 34.9467 291.499 35.4 289.552 35.4ZM288.712 31.88C290.046 31.88 291.232 31.5733 292.272 30.96C293.312 30.3467 294.112 29.4933 294.672 28.4C295.259 27.3067 295.552 26.0667 295.552 24.68C295.552 23.2933 295.259 22.0533 294.672 20.96C294.112 19.8667 293.312 19.0133 292.272 18.4C291.232 17.7867 290.046 17.48 288.712 17.48C287.379 17.48 286.179 17.7867 285.112 18.4C284.072 19.0133 283.259 19.8667 282.672 20.96C282.086 22.0533 281.792 23.2933 281.792 24.68C281.792 26.0667 282.086 27.3067 282.672 28.4C283.259 29.4933 284.072 30.3467 285.112 30.96C286.179 31.5733 287.379 31.88 288.712 31.88Z" fill="white"/>
<path fill-rule="evenodd" clip-rule="evenodd" d="M18.8854 3.78588C18.6349 3.70485 18.3651 3.70485 18.1146 3.78588C18.0871 3.79479 17.9704 3.83557 17.6613 4.0969C17.3354 4.37235 16.9345 4.76942 16.2953 5.40582L5.14198 16.5101C4.36002 17.2887 4.19314 17.4718 4.07865 17.6578C3.95328 17.8615 3.8609 18.0835 3.80488 18.3158C3.75373 18.5279 3.74171 18.7749 3.74171 19.8759V30.1706C3.74171 31.0706 3.74316 31.6336 3.77797 32.0578C3.811 32.4603 3.8645 32.5712 3.87764 32.5969C3.99721 32.8306 4.18801 33.0205 4.42268 33.1396C4.44848 33.1526 4.5599 33.2059 4.96413 33.2388C5.39021 33.2734 5.95568 33.2749 6.85966 33.2749H12.472V26.6525C12.472 23.3379 15.1708 20.6509 18.5 20.6509C21.8292 20.6509 24.528 23.3379 24.528 26.6525V33.2749H30.1403C31.0443 33.2749 31.6098 33.2734 32.0359 33.2388C32.4401 33.2059 32.5515 33.1526 32.5773 33.1396C32.812 33.0205 33.0028 32.8306 33.1224 32.5969C33.1355 32.5712 33.189 32.4603 33.222 32.0578C33.2568 31.6336 33.2583 31.0706 33.2583 30.1706V19.8759C33.2583 18.7749 33.2463 18.5279 33.1951 18.3158C33.1391 18.0835 33.0467 17.8614 32.9214 17.6578C32.8069 17.4718 32.64 17.2887 31.858 16.5101L20.7047 5.40582C20.0655 4.76942 19.6646 4.37235 19.3387 4.0969C19.0296 3.83557 18.9129 3.79479 18.8854 3.78588ZM16.9584 0.243093C17.9604 -0.0810311 19.0396 -0.0810313 20.0416 0.243094C20.726 0.464484 21.274 0.84619 21.7602 1.2571C22.2167 1.64299 22.726 2.15006 23.3014 2.72302L34.5037 13.8761C34.543 13.9152 34.5819 13.9539 34.6205 13.9923C35.2253 14.5935 35.7358 15.1009 36.1115 15.7114C36.4421 16.2484 36.6856 16.8338 36.8333 17.4462C37.0011 18.1424 37.0006 18.8605 36.9999 19.7115C36.9999 19.7657 36.9998 19.8205 36.9998 19.8759V30.2396C36.9999 31.0498 36.9999 31.7669 36.9511 32.3612C36.8992 32.994 36.7828 33.6497 36.4561 34.2881C35.9778 35.2226 35.2146 35.9825 34.2759 36.4586C33.6348 36.7839 32.9762 36.8998 32.3405 36.9515C31.7437 37.0001 31.0234 37 30.2096 37H23.0494C21.7997 37 20.7865 35.9913 20.7865 34.747V26.6525C20.7865 25.3952 19.7628 24.376 18.5 24.376C17.2372 24.376 16.2135 25.3952 16.2135 26.6525V34.747C16.2135 35.9913 15.2003 37 13.9506 37H6.79036C5.97657 37 5.25634 37.0001 4.65946 36.9515C4.02384 36.8998 3.36522 36.7839 2.72406 36.4586C1.78537 35.9825 1.02219 35.2226 0.543907 34.2881C0.217218 33.6497 0.100794 32.994 0.0488618 32.3612C9.3952e-05 31.7669 0.000128272 31.0498 0.000167052 30.2396L0.000169282 19.8759C0.000169282 19.8205 0.000126166 19.7657 8.34217e-05 19.7115C-0.000587228 18.8605 -0.00115318 18.1424 0.166724 17.4462C0.314391 16.8338 0.557949 16.2484 0.888457 15.7114C1.2642 15.1009 1.77466 14.5935 2.37952 13.9923C2.41807 13.9539 2.45701 13.9152 2.49632 13.8761L13.6986 2.72299C14.274 2.15005 14.7833 1.64298 15.2398 1.25711C15.726 0.846191 16.274 0.464484 16.9584 0.243093Z" fill="white"/>
</svg>
