<svg width="17" height="15" viewBox="0 0 17 15" fill="none" xmlns="http://www.w3.org/2000/svg">
<path fill-rule="evenodd" clip-rule="evenodd" d="M8.51427 1.45946C4.56575 1.45946 1.57385 4.03139 1.57385 6.97847C1.57385 8.03741 1.94955 9.03127 2.61272 9.87401C2.71175 9.99986 2.76523 10.1525 2.76523 10.3093C2.76523 11.0388 2.56224 11.7447 2.31387 12.3792C2.16551 12.7582 1.99059 13.1355 1.82176 13.4882C3.29274 13.3307 4.25559 12.8795 4.83745 12.2334C5.04849 11.9991 5.39249 11.9149 5.69747 12.023C6.55596 12.3272 7.50852 12.4975 8.51427 12.4975C12.4628 12.4975 15.4547 9.92554 15.4547 6.97847C15.4547 6.36884 15.3303 5.78254 15.0997 5.23348C14.9424 4.85887 15.1364 4.43471 15.533 4.2861C15.9297 4.1375 16.3788 4.32072 16.5361 4.69534C16.8364 5.41016 17 6.17873 17 6.97847C17 10.9336 13.0854 13.9569 8.51427 13.9569C7.50766 13.9569 6.53967 13.8128 5.64039 13.5471C4.56889 14.482 3.01989 14.9293 1.13479 14.9992C0.339011 15.0287 -0.237478 14.2473 0.0968234 13.5459C0.163121 13.4058 0.229901 13.2676 0.296219 13.1303C0.498954 12.7106 0.697366 12.2998 0.86444 11.8731C1.05046 11.3979 1.17687 10.9507 1.21077 10.5306C0.463136 9.49917 0.0285294 8.28257 0.0285294 6.97847C0.0285294 3.02338 3.94315 0 8.51427 0C9.02025 0 9.51648 0.0364104 9.99914 0.10638C10.4209 0.167526 10.7104 0.540022 10.6456 0.938375C10.5809 1.33673 10.1865 1.61009 9.76468 1.54894C9.35958 1.49021 8.94173 1.45946 8.51427 1.45946Z" fill="#2688EB"/>
<path d="M14.9396 2.14865C14.9396 2.93229 14.2669 3.56756 13.4372 3.56756C12.6074 3.56756 11.9348 2.93229 11.9348 2.14865C11.9348 1.365 12.6074 0.729729 13.4372 0.729729C14.2669 0.729729 14.9396 1.365 14.9396 2.14865Z" fill="#2688EB"/>
</svg>
