<svg width="15" height="13" viewBox="0 0 15 13" fill="none" xmlns="http://www.w3.org/2000/svg">
<path fill-rule="evenodd" clip-rule="evenodd" d="M15 3.49461C15 1.56459 13.3128 0 11.2315 0C9.15018 0 7.46294 1.56459 7.46294 3.49461C7.46294 5.42463 9.15018 6.98922 11.2315 6.98922C13.3128 6.98922 15 5.42463 15 3.49461ZM10.6076 1.5629C10.6439 1.27323 10.9094 1.04838 11.2315 1.04838C11.5784 1.04838 11.8596 1.30915 11.8596 1.63082V2.91218H13.2414L13.3146 2.9161C13.627 2.94974 13.8694 3.19592 13.8694 3.49461C13.8694 3.81628 13.5882 4.07705 13.2414 4.07705H11.8596V5.3584L11.8553 5.42633C11.8191 5.716 11.5536 5.94084 11.2315 5.94084C10.8846 5.94084 10.6034 5.68008 10.6034 5.3584V4.07705H9.22159L9.14834 4.07313C8.83596 4.03948 8.5935 3.7933 8.5935 3.49461C8.5935 3.17294 8.8747 2.91218 9.22159 2.91218H10.6034V1.63082L10.6076 1.5629Z" fill="#3F8AE0"/>
<path d="M6.09623 1.3143C6.46272 1.24224 6.69682 0.908318 6.61911 0.56847C6.5414 0.228622 6.1813 0.0115386 5.81482 0.0835999C2.61924 0.71194 0.0250465 3.19881 0.0250465 6.0854C0.0250465 7.20953 0.406595 8.25826 1.06296 9.14737C1.03319 9.5095 0.922217 9.89497 0.758908 10.3046C0.612231 10.6725 0.438041 11.0265 0.260056 11.3883C0.201846 11.5066 0.143195 11.6258 0.085003 11.7466C-0.208486 12.3512 0.297624 13.0247 0.996255 12.9993C2.65122 12.9391 4.01112 12.5534 4.9518 11.7476C5.7413 11.9767 6.59112 12.1009 7.47483 12.1009C10.2207 12.1009 12.7655 10.9575 14.064 9.07556C14.2659 8.78292 14.1737 8.39392 13.8582 8.20669C13.5426 8.01946 13.1231 8.10491 12.9212 8.39755C11.918 9.85149 9.85036 10.8428 7.47483 10.8428C6.59187 10.8428 5.7556 10.696 5.00191 10.4338C4.73416 10.3406 4.43216 10.4132 4.24689 10.6152C3.73606 11.1721 2.89076 11.5611 1.59935 11.6968C1.74757 11.3928 1.90114 11.0675 2.03139 10.7408C2.24944 10.194 2.42765 9.58545 2.42765 8.95658C2.42765 8.82142 2.3807 8.68985 2.29375 8.58137C1.71155 7.85492 1.38172 6.99821 1.38172 6.0854C1.38172 3.91651 3.38736 1.84694 6.09623 1.3143Z" fill="#3F8AE0"/>
</svg>
