<svg width="17" height="15" viewBox="0 0 17 15" fill="none" xmlns="http://www.w3.org/2000/svg">
<path fill-rule="evenodd" clip-rule="evenodd" d="M6.09435 0.0464608C5.91386 -0.000775585 5.73009 -0.000316353 5.57479 7.17218e-05L3.28994 0.000139355C2.86105 0.000126312 2.49586 0.000115216 2.19603 0.0268198C1.88104 0.0548746 1.5746 0.116316 1.28165 0.279032C0.839976 0.524353 0.480885 0.915799 0.255842 1.39727C0.106575 1.71662 0.0502119 2.05067 0.0244761 2.39404C-2.07709e-05 2.72088 -1.09906e-05 3.11897 4.9492e-07 3.58649V11.4136C-1.09906e-05 11.8811 -2.07709e-05 12.2793 0.0244761 12.6061C0.0502119 12.9495 0.106575 13.2835 0.255842 13.6029C0.480885 14.0843 0.839976 14.4758 1.28165 14.7211C1.5746 14.8838 1.88104 14.9453 2.19603 14.9733C2.49586 15 2.86105 15 3.28992 15H12.8983C13.3272 15 13.6924 15 13.9922 14.9733C14.3072 14.9453 14.6136 14.8838 14.9066 14.7211C15.3483 14.4758 15.7074 14.0843 15.9324 13.6029C16.0817 13.2835 16.138 12.9495 16.1638 12.6061C16.1883 12.2793 16.1882 11.8812 16.1882 11.4136V5.3512C16.1882 4.88369 16.1883 4.48558 16.1638 4.15874C16.138 3.81536 16.0817 3.48131 15.9324 3.16196C15.7074 2.68049 15.3483 2.28905 14.9066 2.04373C14.6137 1.88102 14.3073 1.81957 13.9923 1.79152C13.6926 1.76481 13.3275 1.76482 12.8987 1.76483L8.22426 1.76483C8.11945 1.76483 8.06488 1.76464 8.02452 1.76262C7.98577 1.76068 7.99749 1.76584 7.96886 1.73737C7.93875 1.70742 7.8997 1.66511 7.82521 1.58391L6.96472 0.645886L6.93611 0.614596C6.82667 0.494754 6.69714 0.352904 6.53888 0.247183C6.40128 0.155265 6.25127 0.0875286 6.09435 0.0464608ZM5.53418 1.58836C5.6395 1.58836 5.69456 1.58855 5.73527 1.59058C5.77405 1.59251 5.76245 1.58724 5.79114 1.61577C5.82117 1.64564 5.86013 1.68784 5.9345 1.76893L6.795 2.70696C6.92741 2.85174 7.0602 2.99849 7.22116 3.10601C7.35876 3.19793 7.50877 3.26567 7.66569 3.30673C7.84874 3.35464 8.03724 3.35337 8.22426 3.35305H12.8701C13.3353 3.35305 13.6403 3.35367 13.8737 3.37446C14.0984 3.39448 14.1918 3.4292 14.2452 3.45884C14.4127 3.55189 14.5489 3.70037 14.6342 3.883C14.6614 3.94114 14.6933 4.04291 14.7117 4.28807C14.7307 4.54249 14.7313 4.87516 14.7313 5.38239H1.45694V3.61775C1.45694 3.11049 1.45751 2.7778 1.47658 2.52337C1.49495 2.27822 1.52681 2.17644 1.55399 2.11831C1.63935 1.93568 1.77556 1.7872 1.94309 1.69415C1.99642 1.66452 2.08978 1.6298 2.31467 1.60977C2.54807 1.58898 2.85326 1.58836 3.31859 1.58836H5.53418ZM1.45694 6.97061V11.3824C1.45694 11.8897 1.45751 12.2223 1.47658 12.4768C1.49495 12.7219 1.52681 12.8237 1.55399 12.8818C1.63935 13.0645 1.77556 13.2129 1.94309 13.306C1.99642 13.3356 2.08978 13.3703 2.31467 13.3904C2.54807 13.4112 2.85326 13.4118 3.31859 13.4118H12.8696C13.335 13.4118 13.6402 13.4112 13.8736 13.3904C14.0985 13.3703 14.1918 13.3356 14.2452 13.306C14.4127 13.2129 14.5489 13.0645 14.6342 12.8818C14.6614 12.8237 14.6933 12.7219 14.7117 12.4768C14.7307 12.2223 14.7313 11.8897 14.7313 11.3824V6.97061H1.45694Z" fill="#2688EB"/>
</svg>
