<svg width="20" height="19" viewBox="0 0 20 19" fill="none" xmlns="http://www.w3.org/2000/svg">
<path d="M10.7418 0.000863136C11.9782 0.0381044 12.7822 0.696331 13.2061 1.93718L13.2732 2.14938L13.3252 2.33936C13.3441 2.41252 13.3676 2.49043 13.3952 2.57133L13.4539 2.72918L13.4887 2.74602L13.5593 2.72343L13.6961 2.67273L13.8556 2.60555C15.3029 1.95361 16.4162 2.07461 17.3228 3.03858L17.4509 3.18203L18.2905 4.18888C19.0387 5.14207 19.016 6.1609 18.2862 7.26057L18.158 7.4446L18.0381 7.60322C17.9902 7.66478 17.9415 7.73302 17.8929 7.80634L17.8203 7.91996L17.7859 7.97682L17.79 7.99663L17.8839 8.05653L18.0134 8.13222L18.1704 8.21476C19.5923 8.91692 20.1792 9.84029 19.9528 11.123L19.9149 11.3087L19.665 12.3569C19.5032 13.0352 19.3761 13.3563 18.876 13.797C18.3902 14.225 17.836 14.4017 17.1035 14.4603L16.8783 14.4745L16.6754 14.4807C16.5966 14.4821 16.512 14.4868 16.4233 14.4948L16.2382 14.5161L16.2517 14.6571L16.2653 14.752L16.2984 14.929C16.6293 16.4402 16.257 17.4626 15.0824 18.1005L14.9091 18.189L13.7064 18.7541C12.5782 19.2451 11.5574 18.9945 10.6142 18.059L10.4577 17.8968L10.325 17.7481C10.2732 17.6885 10.2148 17.6265 10.1512 17.5636L10.052 17.4687L10.0012 17.4232L9.90734 17.5095L9.79985 17.6165L9.6794 17.7481C8.7044 18.871 7.67535 19.2741 6.42809 18.8047L6.24841 18.7316L5.17214 18.2255L4.85243 18.0672C4.36511 17.8097 4.09164 17.5631 3.82441 17.017C3.54308 16.4422 3.52418 15.8775 3.66056 15.1518L3.70602 14.929C3.72231 14.8547 3.73655 14.774 3.74845 14.6889L3.7672 14.519L3.76311 14.5151L3.65698 14.5013L3.50702 14.4883L3.32902 14.4807C1.73287 14.4528 0.787067 13.8718 0.40897 12.6209L0.35881 12.4376L0.0603345 11.1765C-0.180296 10.0024 0.30166 9.09631 1.45581 8.4175L1.65438 8.30647L1.834 8.21476C1.9044 8.18 1.97858 8.13968 2.05489 8.09476L2.21332 7.99464L2.21741 7.97583L2.15339 7.86896L2.07067 7.74498L1.96627 7.60322C1.00633 6.36896 0.897177 5.2901 1.68315 4.23164L1.80153 4.08056L2.64477 3.07657C3.45277 2.17025 4.48741 1.97989 5.75078 2.44201L5.96346 2.52506L6.14873 2.60555C6.21843 2.63695 6.2947 2.66788 6.37586 2.69769L6.51465 2.74503L6.5515 2.72819L6.58592 2.64039L6.63207 2.50375L6.67919 2.33936C7.0468 0.916538 7.78909 0.117751 9.12503 0.0105957L9.31994 0L10.7418 0.000863136ZM10.6844 1.78289H9.31994L9.17723 1.79301C8.88441 1.8299 8.69313 1.98284 8.50911 2.61677L8.46673 2.77177L8.40893 2.97558C8.30149 3.32474 8.13907 3.71765 7.92992 4.09913C7.51584 4.24271 7.12232 4.42811 6.75544 4.65194C6.32376 4.56726 5.91213 4.44305 5.56863 4.30567L5.21034 4.15222C4.95555 4.04661 4.76471 3.99274 4.61348 3.97963L4.5273 3.97657C4.34549 3.98025 4.22545 4.0525 4.10948 4.16734L4.03993 4.24115L3.23214 5.20414L3.13519 5.32832C2.94745 5.59013 2.91937 5.82358 3.33466 6.39349L3.56825 6.70631C3.78516 7.0131 4.00267 7.39123 4.18026 7.79727C4.04778 8.17789 3.95404 8.57575 3.90381 8.98725C3.56205 9.27352 3.19787 9.51881 2.8662 9.70114L2.51585 9.88249C1.88439 10.2186 1.80387 10.4403 1.85399 10.7553L1.86769 10.8297L2.15461 12.0385L2.19604 12.1889C2.29367 12.4932 2.46651 12.6583 3.18631 12.6926L3.58281 12.7069C3.96252 12.73 4.39963 12.7959 4.83481 12.9089C5.0649 13.2546 5.33102 13.5757 5.62931 13.8671C5.64631 14.3887 5.59646 14.8971 5.50855 15.2986C5.30269 16.2386 5.49433 16.3901 5.90111 16.5857L7.05381 17.1281C7.17596 17.1813 7.28511 17.2171 7.39855 17.2157L7.46726 17.2102C7.6526 17.1828 7.85774 17.0499 8.15342 16.7301L8.4173 16.438C8.68008 16.1619 9.01574 15.869 9.38824 15.609L9.69324 15.6309L10.0022 15.6383L10.3112 15.6308L10.6163 15.6082C10.9887 15.8689 11.3243 16.1618 11.5871 16.438L11.851 16.7301C12.1836 17.0899 12.4016 17.2131 12.6058 17.2157L12.6735 17.2122C12.7335 17.2054 12.7932 17.1892 12.8553 17.1665L12.9506 17.1281L14.1033 16.5857L14.2454 16.5128C14.5517 16.3399 14.6759 16.1211 14.4958 15.2986C14.4079 14.8971 14.3581 14.3887 14.3763 13.8672C14.6734 13.5757 14.9395 13.2546 15.1698 12.9072C15.6054 12.7956 16.0422 12.73 16.4217 12.7069L16.8181 12.6926C17.6486 12.6531 17.7509 12.4393 17.8498 12.0385L18.1195 10.908C18.2122 10.5058 18.2171 10.2703 17.4885 9.88249L17.1382 9.70113C16.8065 9.51876 16.4423 9.27334 16.1008 8.98647C16.0503 8.57575 15.9566 8.17789 15.8236 7.79644C16.0016 7.39109 16.2192 7.01308 16.4361 6.70631L16.6697 6.39349C17.085 5.82358 17.0569 5.59013 16.8692 5.32832L16.8232 5.26723L16.0176 4.30246C15.8734 4.1327 15.7524 4.01116 15.5549 3.98276L15.4771 3.97657C15.3134 3.97326 15.0998 4.02549 14.794 4.15222L14.4359 4.30561C14.0926 4.44287 13.6814 4.56682 13.2501 4.65038C12.8818 4.42793 12.4874 4.24217 12.0724 4.10003C11.8733 3.73309 11.7159 3.35619 11.6086 3.01769L11.4924 2.60706C11.2961 1.93611 11.0909 1.81031 10.7625 1.78672L10.6844 1.78289ZM10.0022 5.93145C12.1505 5.93145 13.892 7.61659 13.892 9.69532C13.892 11.7741 12.1505 13.4592 10.0022 13.4592C7.85389 13.4592 6.11236 11.7741 6.11236 9.69532C6.11236 7.61659 7.85389 5.93145 10.0022 5.93145ZM10.0022 7.71433C8.87151 7.71433 7.95491 8.60125 7.95491 9.69532C7.95491 10.7894 8.87151 11.6763 10.0022 11.6763C11.1329 11.6763 12.0495 10.7894 12.0495 9.69532C12.0495 8.60125 11.1329 7.71433 10.0022 7.71433Z" fill="#2688EB"/>
</svg>
