<svg width="15" height="14" viewBox="0 0 15 14" fill="none" xmlns="http://www.w3.org/2000/svg">
<path fill-rule="evenodd" clip-rule="evenodd" d="M4.32116 0C2.99842 0 2.36668 0.0996228 1.72442 0.420209C1.17706 0.693424 0.742954 1.09859 0.450224 1.60946C0.106739 2.2089 0 2.79852 0 4.03308V9.96692C0 11.2015 0.106739 11.7911 0.450224 12.3905C0.742954 12.9014 1.17706 13.3066 1.72442 13.5798C2.36668 13.9004 2.99842 14 4.32116 14H10.6788C12.0016 14 12.6333 13.9004 13.2756 13.5798C13.8229 13.3066 14.257 12.9014 14.5498 12.3905C14.8933 11.7911 15 11.2015 15 9.96692V4.03308C15 2.79852 14.8933 2.2089 14.5498 1.60946C14.257 1.09859 13.8229 0.693424 13.2756 0.420209C12.6333 0.0996228 12.0016 0 10.6788 0H4.32116ZM2.43976 1.66862C2.7448 1.51636 3.06835 1.41573 4.32116 1.41573H10.6788C11.9317 1.41573 12.2552 1.51636 12.5602 1.66862C12.8433 1.80989 13.0608 2.01296 13.2122 2.27711C13.3706 2.55348 13.4768 2.84612 13.4829 3.9326H1.51713C1.52321 2.84612 1.62944 2.55348 1.78781 2.27711C1.93917 2.01296 2.15675 1.80989 2.43976 1.66862ZM1.51685 5.34833V9.96692C1.51685 11.1362 1.62467 11.4382 1.78781 11.7229C1.93917 11.987 2.15675 12.1901 2.43976 12.3314C2.7448 12.4836 3.06834 12.5843 4.32116 12.5843H10.6788C11.9317 12.5843 12.2552 12.4836 12.5602 12.3314C12.8433 12.1901 13.0608 11.987 13.2122 11.7229C13.3753 11.4382 13.4831 11.1362 13.4831 9.96692V5.34833H1.51685Z" fill="#3F8AE0"/>
</svg>
