<svg width="37" height="37" viewBox="0 0 37 37" fill="none" xmlns="http://www.w3.org/2000/svg">
<path fill-rule="evenodd" clip-rule="evenodd" d="M18.8854 3.78588C18.6349 3.70485 18.3651 3.70485 18.1146 3.78588C18.0871 3.79479 17.9704 3.83557 17.6613 4.0969C17.3354 4.37235 16.9345 4.76942 16.2953 5.40582L5.14198 16.5101C4.36002 17.2887 4.19314 17.4718 4.07865 17.6578C3.95328 17.8615 3.8609 18.0835 3.80488 18.3158C3.75373 18.5279 3.74171 18.7749 3.74171 19.8759V30.1706C3.74171 31.0706 3.74316 31.6336 3.77797 32.0578C3.811 32.4603 3.8645 32.5712 3.87764 32.5969C3.99721 32.8306 4.18801 33.0205 4.42268 33.1396C4.44848 33.1526 4.5599 33.2059 4.96413 33.2388C5.39021 33.2734 5.95568 33.2749 6.85966 33.2749H12.472V26.6525C12.472 23.3379 15.1708 20.6509 18.5 20.6509C21.8292 20.6509 24.528 23.3379 24.528 26.6525V33.2749H30.1403C31.0443 33.2749 31.6098 33.2734 32.0359 33.2388C32.4401 33.2059 32.5515 33.1526 32.5773 33.1396C32.812 33.0205 33.0028 32.8306 33.1224 32.5969C33.1355 32.5712 33.189 32.4603 33.222 32.0578C33.2568 31.6336 33.2583 31.0706 33.2583 30.1706V19.8759C33.2583 18.7749 33.2463 18.5279 33.1951 18.3158C33.1391 18.0835 33.0467 17.8614 32.9214 17.6578C32.8069 17.4718 32.64 17.2887 31.858 16.5101L20.7047 5.40582C20.0655 4.76942 19.6646 4.37235 19.3387 4.0969C19.0296 3.83557 18.9129 3.79479 18.8854 3.78588ZM16.9584 0.243093C17.9604 -0.0810311 19.0396 -0.0810313 20.0416 0.243094C20.726 0.464484 21.274 0.84619 21.7602 1.2571C22.2167 1.64299 22.726 2.15006 23.3014 2.72302L34.5037 13.8761C34.543 13.9152 34.5819 13.9539 34.6205 13.9923C35.2253 14.5935 35.7358 15.1009 36.1115 15.7114C36.4421 16.2484 36.6856 16.8338 36.8333 17.4462C37.0011 18.1424 37.0006 18.8605 36.9999 19.7115C36.9999 19.7657 36.9998 19.8205 36.9998 19.8759V30.2396C36.9999 31.0498 36.9999 31.7669 36.9511 32.3612C36.8992 32.994 36.7828 33.6497 36.4561 34.2881C35.9778 35.2226 35.2146 35.9825 34.2759 36.4586C33.6348 36.7839 32.9762 36.8998 32.3405 36.9515C31.7437 37.0001 31.0234 37 30.2096 37H23.0494C21.7997 37 20.7865 35.9913 20.7865 34.747V26.6525C20.7865 25.3952 19.7628 24.376 18.5 24.376C17.2372 24.376 16.2135 25.3952 16.2135 26.6525V34.747C16.2135 35.9913 15.2003 37 13.9506 37H6.79036C5.97657 37 5.25634 37.0001 4.65946 36.9515C4.02384 36.8998 3.36522 36.7839 2.72406 36.4586C1.78537 35.9825 1.02219 35.2226 0.543907 34.2881C0.217218 33.6497 0.100794 32.994 0.0488618 32.3612C9.3952e-05 31.7669 0.000128272 31.0498 0.000167052 30.2396L0.000169282 19.8759C0.000169282 19.8205 0.000126166 19.7657 8.34217e-05 19.7115C-0.000587228 18.8605 -0.00115318 18.1424 0.166724 17.4462C0.314391 16.8338 0.557949 16.2484 0.888457 15.7114C1.2642 15.1009 1.77466 14.5935 2.37952 13.9923C2.41807 13.9539 2.45701 13.9152 2.49632 13.8761L13.6986 2.72299C14.274 2.15005 14.7833 1.64298 15.2398 1.25711C15.726 0.846191 16.274 0.464484 16.9584 0.243093Z" fill="white"/>
</svg>
